<svg xmlns="http://www.w3.org/2000/svg" xmlns:xlink="http://www.w3.org/1999/xlink" width="500" zoomAndPan="magnify" viewBox="0 0 375 374.999991" height="500" preserveAspectRatio="xMidYMid meet" version="1.0"><defs><clipPath id="cc4da97653"><path d="M 132 155.25 L 273.316406 155.25 L 273.316406 212 L 132 212 Z M 132 155.25 " clip-rule="nonzero"/></clipPath></defs><g clip-path="url(#cc4da97653)"><path fill="#445e16" d="M 243.339844 174.082031 C 256.453125 176.324219 266.675781 181.367188 273.316406 185.410156 C 260.335938 175.632812 248.308594 170.0625 239.921875 166.847656 C 235.734375 165.246094 231.621094 163.910156 227.613281 162.800781 C 227.273438 162.542969 227.097656 162.308594 227.152344 162.117188 C 227.292969 161.601562 229.070312 161.441406 234.125 162.117188 C 228.558594 159.15625 223.769531 158.125 220.179688 157.792969 C 214.945312 157.304688 209.6875 158.054688 209.464844 157.015625 C 209.359375 156.527344 210.425781 155.867188 211.464844 155.339844 C 207.492188 156.039062 203.492188 156.40625 199.457031 156.433594 C 193.445312 156.480469 190.171875 155.746094 186.675781 155.53125 C 182.109375 155.253906 175.652344 155.769531 167.476562 159.363281 C 164.527344 159.757812 161.757812 160.214844 159.1875 160.699219 C 154.289062 161.621094 150.113281 162.652344 146.792969 163.5625 C 144.949219 177.484375 140.648438 182.535156 136.773438 184.414062 C 135.3125 185.125 131.417969 188.46875 132.757812 187.425781 C 132.921875 187.296875 141.046875 195.964844 141.578125 196.515625 C 145.980469 201.046875 150.320312 205.648438 154.777344 210.128906 C 155.023438 210.375 155.265625 210.621094 155.511719 210.867188 C 156.695312 212.050781 156.78125 212.347656 157.980469 210.929688 C 158.023438 210.875 158.070312 210.824219 158.117188 210.769531 C 158.324219 210.515625 158.550781 210.246094 158.789062 209.964844 L 158.894531 209.839844 C 161.011719 207.347656 164.007812 204.003906 164.40625 203.644531 C 165.414062 202.726562 167.015625 201.917969 169.738281 201.851562 C 171.039062 201.816406 172.597656 201.957031 174.46875 202.335938 C 174.734375 202.390625 175.007812 202.449219 175.285156 202.511719 C 178.875 197.109375 183.128906 192.292969 188.050781 188.066406 C 190.386719 187.863281 192.042969 187.183594 193.195312 186.515625 C 197.277344 184.160156 198.527344 179.988281 202.363281 179.800781 C 202.785156 179.78125 203.613281 179.894531 205.265625 180.125 C 208.183594 180.527344 210.253906 181.042969 210.753906 181.15625 C 212.765625 181.617188 216.183594 181.691406 222.308594 179.867188 C 217.496094 180.058594 214.121094 178.402344 213.789062 176.445312 C 213.664062 175.714844 213.957031 174.910156 214.503906 174.15625 C 217.765625 173.414062 221.066406 172.964844 224.410156 172.800781 C 226.070312 173.5 228.109375 174.261719 230.957031 174.636719 C 235.820312 175.277344 236.777344 173.960938 240.449219 175.089844 C 244.175781 176.238281 246.761719 178.695312 248.386719 180.640625 C 246.992188 178.234375 245.308594 176.046875 243.339844 174.082031 Z M 155.722656 163.65625 C 156.980469 163.964844 157.90625 164.535156 158.140625 165.230469 C 158.421875 166.042969 157.777344 166.796875 156.628906 167.414062 C 155.628906 167.28125 154.890625 166.941406 154.5625 166.363281 C 154.136719 165.609375 154.578125 164.550781 155.726562 163.65625 Z M 155.03125 195.667969 C 154.234375 195.632812 153.464844 195.464844 152.722656 195.164062 C 151.984375 194.867188 151.3125 194.457031 150.707031 193.933594 C 150.105469 193.410156 149.605469 192.804688 149.207031 192.109375 C 148.808594 191.417969 148.535156 190.679688 148.382812 189.894531 C 148.234375 189.113281 148.214844 188.324219 148.332031 187.535156 C 148.445312 186.742188 148.6875 185.996094 149.054688 185.285156 C 149.421875 184.578125 149.894531 183.945312 150.472656 183.398438 C 151.054688 182.847656 151.707031 182.40625 152.433594 182.078125 C 153.230469 182.117188 154 182.285156 154.742188 182.582031 C 155.480469 182.878906 156.152344 183.289062 156.757812 183.8125 C 157.359375 184.335938 157.859375 184.945312 158.257812 185.636719 C 158.65625 186.328125 158.929688 187.066406 159.082031 187.851562 C 159.230469 188.636719 159.246094 189.421875 159.132812 190.210938 C 159.019531 191.003906 158.777344 191.753906 158.410156 192.460938 C 158.042969 193.171875 157.570312 193.800781 156.992188 194.347656 C 156.414062 194.898438 155.757812 195.339844 155.03125 195.667969 Z M 175.636719 180.078125 C 174.796875 179.261719 174.144531 178.035156 173.871094 176.589844 C 173.59375 175.148438 173.75 173.765625 174.226562 172.703125 C 175.238281 173.484375 176 174.691406 176.273438 176.132812 C 176.550781 177.574219 176.289062 178.976562 175.636719 180.078125 Z M 176.183594 199.992188 C 175.847656 200.695312 175.40625 201.316406 174.851562 201.859375 C 173.199219 200.722656 172.6875 197.957031 173.722656 195.488281 C 174.019531 194.769531 174.4375 194.128906 174.972656 193.566406 C 176.851562 194.632812 177.398438 197.449219 176.183594 199.992188 Z M 176.183594 199.992188 " fill-opacity="1" fill-rule="nonzero"/></g><path fill="#8cc63f" d="M 182.28125 183.4375 C 182.042969 182.1875 181.722656 180.960938 181.324219 179.757812 C 180.230469 176.46875 178.589844 173.484375 176.402344 170.800781 C 175.597656 169.804688 174.726562 168.867188 173.789062 167.988281 C 172.855469 167.113281 171.867188 166.300781 170.824219 165.558594 C 169.78125 164.8125 168.691406 164.144531 167.554688 163.546875 C 166.421875 162.949219 165.253906 162.433594 164.046875 161.992188 C 162.84375 161.554688 161.617188 161.199219 160.363281 160.925781 C 159.109375 160.652344 157.84375 160.464844 156.566406 160.363281 C 155.289062 160.261719 154.011719 160.246094 152.730469 160.316406 C 151.453125 160.386719 150.183594 160.542969 148.925781 160.785156 C 133.457031 163.742188 123.316406 178.675781 126.273438 194.140625 C 129.230469 209.605469 144.167969 219.75 159.632812 216.789062 C 169.492188 214.90625 177.191406 208.148438 180.707031 199.492188 C 181 198.765625 181.265625 198.03125 181.5 197.28125 C 182.921875 192.730469 183.183594 188.113281 182.28125 183.433594 Z M 176.183594 199.992188 C 175.847656 200.695312 175.40625 201.316406 174.851562 201.859375 C 174.820312 201.890625 174.785156 201.921875 174.757812 201.949219 C 172.878906 200.882812 172.332031 198.0625 173.550781 195.523438 C 173.902344 194.78125 174.375 194.128906 174.972656 193.566406 C 176.851562 194.632812 177.398438 197.449219 176.183594 199.992188 Z M 176.273438 176.132812 C 176.550781 177.574219 176.285156 178.976562 175.636719 180.078125 C 174.628906 179.296875 173.867188 178.089844 173.589844 176.648438 C 173.316406 175.203125 173.578125 173.800781 174.226562 172.703125 C 175.238281 173.484375 176 174.691406 176.273438 176.132812 Z M 155.03125 195.667969 C 154.234375 195.632812 153.464844 195.464844 152.726562 195.164062 C 151.984375 194.867188 151.3125 194.457031 150.710938 193.933594 C 150.105469 193.410156 149.605469 192.804688 149.207031 192.109375 C 148.808594 191.417969 148.535156 190.679688 148.382812 189.894531 C 148.234375 189.113281 148.21875 188.324219 148.332031 187.535156 C 148.445312 186.742188 148.6875 185.996094 149.054688 185.285156 C 149.421875 184.578125 149.894531 183.945312 150.476562 183.398438 C 151.054688 182.847656 151.707031 182.40625 152.433594 182.078125 C 153.230469 182.117188 154 182.285156 154.742188 182.582031 C 155.484375 182.878906 156.15625 183.289062 156.757812 183.8125 C 157.359375 184.335938 157.859375 184.945312 158.257812 185.636719 C 158.65625 186.328125 158.929688 187.066406 159.082031 187.851562 C 159.230469 188.636719 159.25 189.421875 159.132812 190.210938 C 159.019531 191.003906 158.777344 191.753906 158.410156 192.460938 C 158.042969 193.171875 157.570312 193.800781 156.992188 194.347656 C 156.414062 194.898438 155.761719 195.339844 155.03125 195.667969 Z M 154.5625 166.363281 C 154.136719 165.609375 154.578125 164.550781 155.726562 163.65625 C 156.980469 163.964844 157.90625 164.535156 158.140625 165.230469 C 158.421875 166.042969 157.78125 166.796875 156.628906 167.414062 C 155.628906 167.277344 154.890625 166.941406 154.5625 166.363281 Z M 131.699219 181.230469 C 131.601562 181.203125 131.507812 181.164062 131.417969 181.113281 C 130.414062 180.523438 130.585938 178.324219 132.367188 176.273438 C 133.21875 175.285156 134.277344 174.574219 135.253906 174.195312 C 135.609375 174.214844 135.910156 174.316406 136.121094 174.5 C 137.089844 175.332031 136.039062 177.332031 134.316406 179.144531 C 133.421875 180.082031 132.511719 180.820312 131.699219 181.230469 Z M 141.625 209.3125 C 140.746094 208.910156 139.949219 208.375 139.246094 207.710938 C 137.371094 206.003906 136.367188 203.699219 136.433594 202.15625 C 137.195312 202.65625 137.996094 203.324219 138.757812 204.089844 C 140.675781 206.042969 141.878906 208.011719 141.625 209.3125 Z M 161.84375 213.851562 C 159.695312 213.40625 158.070312 212.285156 157.980469 211.160156 C 157.972656 211.082031 157.972656 211.007812 157.980469 210.929688 C 158.011719 210.558594 158.207031 210.230469 158.527344 209.945312 C 158.617188 209.953125 158.703125 209.960938 158.785156 209.96875 L 158.898438 209.976562 C 160.953125 210.171875 162.449219 210.785156 162.746094 211.855469 C 162.921875 212.496094 162.585938 213.226562 161.84375 213.851562 Z M 161.84375 213.851562 " fill-opacity="1" fill-rule="nonzero"/><path fill="#5c7f25" d="M 155.03125 195.667969 C 154.542969 195.890625 154.035156 196.054688 153.507812 196.164062 C 152.980469 196.269531 152.445312 196.316406 151.910156 196.300781 C 151.371094 196.285156 150.839844 196.210938 150.320312 196.078125 C 149.800781 195.941406 149.300781 195.75 148.820312 195.503906 C 148.34375 195.257812 147.902344 194.957031 147.492188 194.609375 C 147.082031 194.261719 146.714844 193.871094 146.394531 193.441406 C 146.070312 193.007812 145.800781 192.546875 145.585938 192.054688 C 145.367188 191.5625 145.210938 191.050781 145.109375 190.523438 C 145.007812 189.992188 144.96875 189.460938 144.988281 188.921875 C 145.007812 188.386719 145.085938 187.855469 145.226562 187.335938 C 145.367188 186.816406 145.5625 186.320312 145.816406 185.84375 C 146.066406 185.371094 146.371094 184.929688 146.722656 184.523438 C 147.074219 184.117188 147.46875 183.753906 147.902344 183.4375 C 148.339844 183.121094 148.804688 182.855469 149.296875 182.644531 C 149.792969 182.433594 150.304688 182.277344 150.832031 182.183594 C 151.363281 182.085938 151.898438 182.050781 152.433594 182.078125 C 151.707031 182.40625 151.054688 182.847656 150.476562 183.398438 C 149.894531 183.945312 149.421875 184.578125 149.054688 185.285156 C 148.6875 185.996094 148.445312 186.742188 148.332031 187.535156 C 148.21875 188.324219 148.234375 189.113281 148.382812 189.894531 C 148.535156 190.679688 148.808594 191.417969 149.207031 192.109375 C 149.605469 192.804688 150.105469 193.410156 150.710938 193.933594 C 151.3125 194.457031 151.984375 194.867188 152.726562 195.164062 C 153.464844 195.464844 154.234375 195.632812 155.03125 195.667969 Z M 155.03125 195.667969 " fill-opacity="1" fill-rule="nonzero"/><path fill="#5c7f25" d="M 175.636719 180.078125 C 175.167969 181.128906 174.386719 181.871094 173.402344 182.0625 C 171.421875 182.441406 169.371094 180.421875 168.824219 177.558594 C 168.277344 174.691406 169.4375 172.0625 171.417969 171.683594 C 172.402344 171.496094 173.402344 171.898438 174.230469 172.703125 C 173.75 173.769531 173.59375 175.152344 173.871094 176.59375 C 174.144531 178.035156 174.800781 179.261719 175.636719 180.078125 Z M 175.636719 180.078125 " fill-opacity="1" fill-rule="nonzero"/><path fill="#5c7f25" d="M 174.851562 201.859375 C 174.878906 201.878906 174.90625 201.898438 174.933594 201.914062 C 174.789062 202.066406 174.632812 202.207031 174.46875 202.339844 C 173.347656 203.238281 171.996094 203.488281 170.84375 202.863281 C 170.394531 202.613281 170.027344 202.277344 169.738281 201.851562 C 168.785156 200.484375 168.621094 198.308594 169.453125 196.328125 C 170.542969 193.730469 172.933594 192.445312 174.792969 193.457031 C 174.855469 193.488281 174.914062 193.527344 174.976562 193.566406 C 174.4375 194.128906 174.019531 194.769531 173.726562 195.488281 C 172.6875 197.957031 173.203125 200.722656 174.851562 201.859375 Z M 174.851562 201.859375 " fill-opacity="1" fill-rule="nonzero"/><path fill="#5c7f25" d="M 136.433594 202.15625 C 136.367188 203.699219 137.371094 206.003906 139.242188 207.710938 C 139.949219 208.375 140.746094 208.910156 141.625 209.3125 C 141.589844 209.507812 141.519531 209.6875 141.410156 209.855469 C 140.609375 211.082031 137.824219 210.773438 135.316406 208.464844 C 132.808594 206.167969 131.855469 202.800781 132.960938 201.644531 C 133.683594 200.878906 134.996094 201.210938 136.433594 202.15625 Z M 136.433594 202.15625 " fill-opacity="1" fill-rule="nonzero"/><path fill="#5c7f25" d="M 157.503906 209.761719 C 158.007812 209.761719 158.507812 209.792969 159.003906 209.855469 C 158.679688 210.1875 158.546875 210.582031 158.601562 211.039062 C 158.714844 212.164062 160.078125 213.332031 161.84375 213.851562 C 161.148438 214.5625 159.988281 215.113281 158.492188 215.195312 C 155.75 215.359375 153.132812 213.691406 152.972656 212.117188 C 152.800781 210.527344 154.964844 209.765625 157.503906 209.761719 Z M 157.503906 209.761719 " fill-opacity="1" fill-rule="nonzero"/><path fill="#5c7f25" d="M 135.253906 174.195312 C 134.277344 174.574219 133.21875 175.285156 132.367188 176.273438 C 130.585938 178.324219 130.414062 180.527344 131.417969 181.117188 C 131.507812 181.167969 131.601562 181.207031 131.699219 181.234375 C 130.941406 181.621094 130.269531 181.71875 129.777344 181.425781 C 128.773438 180.839844 128.941406 178.636719 130.722656 176.585938 C 132.097656 174.992188 134.019531 174.117188 135.253906 174.195312 Z M 135.253906 174.195312 " fill-opacity="1" fill-rule="nonzero"/><path fill="#5c7f25" d="M 156.628906 167.414062 C 155.738281 167.890625 154.546875 168.285156 153.242188 168.566406 C 150.238281 169.191406 147.652344 169.0625 146.949219 167.816406 C 146.261719 166.589844 147.855469 164.5625 151.0625 163.734375 C 152.707031 163.304688 154.398438 163.332031 155.726562 163.65625 C 154.578125 164.550781 154.136719 165.609375 154.5625 166.363281 C 154.890625 166.941406 155.628906 167.277344 156.628906 167.414062 Z M 156.628906 167.414062 " fill-opacity="1" fill-rule="nonzero"/></svg>